{"title":"THE ADVENTURES OF ELMO-IN GROUCHLAND IN H.264 AAC MP4 BY WINKER","uid":5461870,"size":945564242,"categoryP":"video","categoryS":"movies","magnet":"?xt=urn:btih:6d89c35d1e110cb9f096dacbc1ce123c029f04ad&amp;dn=THE+ADVENTURES+OF+ELMO-IN+GROUCHLAND+IN+H.264+AAC+MP4+BY+WINKER&amp;tr=udp%3A%2F%2Ftracker.openbittorrent.com%3A80&amp;tr=udp%3A%2F%2Fopen.demonii.com%3A1337&amp;tr=udp%3A%2F%2Ftracker.coppersurfer.tk%3A6969&amp;tr=udp%3A%2F%2Fexodus.desync.com%3A6969","seeders":1,"leechers":0,"uploader":"alanwatson","files":-1,"time":1269493800,"description":"Elmo loves\nhis fuzzy, blue blanket, and would never let anything happen to it. A tug-of-war with his friend Zoe sends his blanket to a faraway land, and Elmo is in hot pursuit. Facing life without his cherished blanket, Elmo musters all of his courage and heads off on an action-packed rescue mission that plunges him into Grouchland.\n\nFormat : MPEG-4\nFormat profile : Base Media / Version 2\nCodec ID : mp42\nFile size : 900 MiB\nDuration : 1h 10mn\nOverall bit rate : 1 794 Kbps\nEncoded date : UTC 2010-03-24 11:41:44\nTagged date : UTC 2010-03-24 15:47:46\nWriting application : HandBrake 0.9.3 2008112300\n\nVideo\nID : 1\nFormat : AVC\nFormat/Info : Advanced Video Codec\nFormat profile : &lt;a class=&quot;__cf_email__&quot; href=&quot;/cdn-cgi/l/email-protection&quot; data-cfemail=&quot;3d705c54537d7109130d&quot;&gt;[email&amp;#160;protected]&lt;/a&gt;&lt;script cf-hash='f9e31' type=&quot;text/javascript&quot;&gt;\n/* &lt;![CDATA[ */!function(){try{var t=&quot;currentScript&quot;in document?document.currentScript:function(){for(var t=document.getElementsByTagName(&quot;script&quot;),e=t.length;e--;)if(t[e].getAttribute(&quot;cf-hash&quot;))return t[e]}();if(t&amp;&amp;t.previousSibling){var e,r,n,i,c=t.previousSibling,a=c.getAttribute(&quot;data-cfemail&quot;);if(a){for(e=&quot;&quot;,r=parseInt(a.substr(0,2),16),n=2;a.length-n;n+=2)i=parseInt(a.substr(n,2),16)^r,e+=String.fromCharCode(i);e=document.createTextNode(e),c.parentNode.replaceChild(e,c)}}}catch(u){}}();/* ]]&gt; */&lt;/script&gt;\nFormat settings, CABAC : Yes\nFormat settings, ReFrames : 3 frames\nCodec ID : avc1\nCodec ID/Info : Advanced Video Coding\nDuration : 1h 10mn\nBit rate mode : Variable\nBit rate : 1 630 Kbps\nWidth : 702 pixels\nHeight : 552 pixels\nDisplay aspect ratio : 16:9\nFrame rate mode : Variable\nFrame rate : 25.000 fps\nMinimum frame rate : 12.500 fps\nMaximum frame rate : 25.000 fps\nResolution : 8 bits\nColorimetry : 4:2:0\nScan type : Progressive\nBits/(Pixel*Frame) : 0.168\nStream size : 818 MiB (91%)\n\n\nAudio\nID : 2\nFormat : AAC\nFormat/Info : Advanced Audio Codec\nFormat version : Version 4\nFormat profile : LC\nFormat settings, SBR : No\nCodec ID : 40\nDuration : 1h 10mn\nBit rate mode : Variable\nBit rate : 160 Kbps\nMaximum bit rate : 242 Kbps\nChannel(s) : 2 channels\nChannel positions : L R\nSampling rate : 48.0 KHz\nStream size : 80.3 MiB (9%)\nLanguage : English\nEncoded date : UTC 2010-03-24 11:41:44\nTagged date : UTC 2010-03-24 15:47:37","torrent":{"xt":"urn:btih:6d89c35d1e110cb9f096dacbc1ce123c029f04ad","amp;dn":"THE+ADVENTURES+OF+ELMO-IN+GROUCHLAND+IN+H.264+AAC+MP4+BY+WINKER","amp;tr":["udp%3A%2F%2Ftracker.openbittorrent.com%3A80","udp%3A%2F%2Fopen.demonii.com%3A1337","udp%3A%2F%2Ftracker.coppersurfer.tk%3A6969","udp%3A%2F%2Fexodus.desync.com%3A6969"],"infoHash":"6d89c35d1e110cb9f096dacbc1ce123c029f04ad","infoHashBuffer":{"type":"Buffer","data":[109,137,195,93,30,17,12,185,240,150,218,203,193,206,18,60,2,159,4,173]},"announce":[],"urlList":[]}}